<?xml version="1.0" encoding="UTF-8"?>
<svg xmlns="http://www.w3.org/2000/svg" width="400" height="400" viewBox="0 0 400 400" fill="none">
  <path d="M179.341 278.406V122.921C179.341 116.063 174.536 106.353 151.638 99.0594C135.933 94.0608 115.169 91.3039 93.1738 91.3039C71.172 91.3039 50.4148 94.0608 34.7097 99.0594C11.8045 106.353 7 116.063 7 122.921V278.406C7 285.272 11.8045 294.975 34.7097 302.275C50.4148 307.274 71.172 310.031 93.1738 310.031C115.169 310.031 135.933 307.274 151.638 302.275C174.536 294.975 179.341 285.272 179.341 278.406ZM93.1738 103.543C141.018 103.543 167.116 116.344 167.116 122.921C167.116 129.499 141.018 142.307 93.1738 142.307C45.3292 142.307 19.2255 129.506 19.2255 122.921C19.2255 116.344 45.3292 103.543 93.1738 103.543ZM19.2255 140.079C23.12 142.427 28.1788 144.709 34.7097 146.79C50.4148 151.789 71.1787 154.546 93.1738 154.546C115.169 154.546 135.933 151.789 151.638 146.79C158.169 144.709 163.221 142.427 167.116 140.079V174.754C167.116 181.332 141.018 194.14 93.1738 194.14C45.3292 194.14 19.2255 181.332 19.2255 174.754V140.079ZM19.2255 191.905C23.12 194.26 28.1788 196.535 34.7097 198.616C50.4148 203.622 71.1787 206.372 93.1738 206.372C115.169 206.372 135.933 203.622 151.638 198.616C158.169 196.535 163.221 194.26 167.116 191.911V226.58C167.116 233.158 141.018 245.966 93.1738 245.966C45.3292 245.966 19.2255 233.158 19.2255 226.58V191.905ZM19.2255 278.406V243.738C23.12 246.086 28.1788 248.361 34.7097 250.442C50.4148 255.448 71.1787 258.205 93.1738 258.205C115.169 258.205 135.933 255.448 151.638 250.442C158.169 248.361 163.221 246.086 167.116 243.738V278.406C167.116 284.991 141.018 297.792 93.1738 297.792C45.3292 297.792 19.2255 284.991 19.2255 278.406ZM79.0413 174.339C79.0413 170.96 81.7781 168.223 85.1574 168.223H101.19C104.563 168.223 107.3 170.96 107.3 174.339C107.3 177.719 104.563 180.462 101.19 180.462H85.1574C81.7781 180.462 79.0413 177.719 79.0413 174.339ZM79.0413 226.172C79.0413 222.793 81.7781 220.049 85.1574 220.049H101.19C104.563 220.049 107.3 222.793 107.3 226.172C107.3 229.545 104.563 232.288 101.19 232.288H85.1574C81.7781 232.288 79.0413 229.551 79.0413 226.172ZM107.3 277.998C107.3 281.377 104.563 284.114 101.19 284.114H85.1574C81.7781 284.114 79.0413 281.377 79.0413 277.998C79.0413 274.619 81.7781 271.882 85.1574 271.882H101.19C104.563 271.882 107.3 274.619 107.3 277.998ZM112.619 35.6301C112.619 32.2509 115.356 29.5074 118.729 29.5074H256.521L246.839 21.9392C244.175 19.8648 243.7 16.0172 245.781 13.354C247.863 10.6907 251.703 10.2156 254.36 12.2967L278.041 30.8055C279.527 31.9632 280.39 33.7431 280.39 35.6301C280.39 37.5105 279.527 39.2904 278.041 40.4481L254.36 58.9569C253.243 59.8335 251.918 60.2551 250.606 60.2551C248.786 60.2551 246.986 59.4454 245.781 57.8996C243.707 55.2364 244.175 51.3954 246.839 49.3144L256.521 41.7462H118.729C115.356 41.7462 112.619 39.0094 112.619 35.6301Z" fill="#FF4906"></path>
  <path d="M389.379 114.385L366.025 91.0112C364.058 89.0372 361.549 88 358.765 88H231.251C225.59 88 220.979 92.6105 220.979 98.2782V296.442C220.979 302.116 225.59 306.727 231.251 306.727H382.119C387.78 306.727 392.39 302.116 392.39 296.442V121.652C392.39 118.868 391.353 116.359 389.379 114.385ZM366.601 108.891L371.519 113.809H366.601V108.891ZM233.205 294.488V100.239H354.375V117.851C354.375 122.368 358.049 126.048 362.566 126.048H380.165V294.488H233.205ZM248.167 119.932C248.167 116.553 250.904 113.809 254.283 113.809H333.297C336.676 113.809 339.413 116.553 339.413 119.932C339.413 123.311 336.676 126.048 333.297 126.048H254.283C250.904 126.048 248.167 123.311 248.167 119.932ZM365.202 150.921C365.202 154.3 362.466 157.037 359.086 157.037H254.283C250.904 157.037 248.167 154.3 248.167 150.921C248.167 147.541 250.904 144.805 254.283 144.805H359.086C362.466 144.805 365.202 147.541 365.202 150.921ZM365.202 181.909C365.202 185.289 362.466 188.025 359.086 188.025H254.283C250.904 188.025 248.167 185.289 248.167 181.909C248.167 178.53 250.904 175.793 254.283 175.793H359.086C362.466 175.793 365.202 178.53 365.202 181.909ZM365.202 212.898C365.202 216.277 362.466 219.021 359.086 219.021H254.283C250.904 219.021 248.167 216.277 248.167 212.898C248.167 209.519 250.904 206.782 254.283 206.782H359.086C362.466 206.782 365.202 209.519 365.202 212.898ZM365.202 243.893C365.202 247.272 362.466 250.009 359.086 250.009H254.283C250.904 250.009 248.167 247.272 248.167 243.893C248.167 240.514 250.904 237.77 254.283 237.77H359.086C362.466 237.77 365.202 240.514 365.202 243.893ZM365.202 274.882C365.202 278.261 362.466 280.998 359.086 280.998H254.283C250.904 280.998 248.167 278.261 248.167 274.882C248.167 271.503 250.904 268.766 254.283 268.766H359.086C362.466 268.766 365.202 271.503 365.202 274.882ZM286.771 362.401C286.771 365.78 284.034 368.517 280.661 368.517H142.869L152.551 376.085C155.215 378.166 155.69 382.014 153.609 384.677C152.404 386.223 150.604 387.032 148.784 387.032C147.473 387.032 146.148 386.604 145.03 385.734L121.349 367.225C119.863 366.068 119 364.288 119 362.401C119 360.52 119.863 358.74 121.349 357.583L145.03 339.074C147.687 336.993 151.528 337.468 153.609 340.131C155.683 342.794 155.215 346.635 152.551 348.716L142.869 356.285H280.661C284.034 356.285 286.771 359.021 286.771 362.401Z" fill="#004B94"></path>
</svg>
